<?xml version="1.0" encoding="UTF-8" standalone="no"?>
<!DOCTYPE svg PUBLIC "-//W3C//DTD SVG 1.1//EN"
 "http://www.w3.org/Graphics/SVG/1.1/DTD/svg11.dtd">
<!-- Generated by graphviz version 2.43.0 (0)
 -->
<!-- Title: %3 Pages: 1 -->
<svg width="650pt" height="332pt"
 viewBox="0.00 0.00 650.00 332.00" xmlns="http://www.w3.org/2000/svg" xmlns:xlink="http://www.w3.org/1999/xlink">
<g id="graph0" class="graph" transform="scale(1 1) rotate(0) translate(4 328)">
<title>%3</title>
<polygon fill="#21495c" stroke="transparent" points="-4,4 -4,-328 646,-328 646,4 -4,4"/>
<!-- n0 -->
<g id="node1" class="node">
<title>n0</title>
<ellipse fill="#2b8ea4" stroke="#007add" cx="249" cy="-306" rx="38.19" ry="18"/>
<text text-anchor="middle" x="249" y="-302.3" font-family="Times,serif" font-size="14.00" fill="white">ROOT</text>
</g>
<!-- n1 -->
<g id="node2" class="node">
<title>n1</title>
<ellipse fill="#2b8ea4" stroke="#007add" cx="249" cy="-234" rx="86.38" ry="18"/>
<text text-anchor="middle" x="249" y="-230.3" font-family="Times,serif" font-size="14.00" fill="white">INSTRUCTIONS</text>
</g>
<!-- n0&#45;&gt;n1 -->
<g id="edge1" class="edge">
<title>n0&#45;&gt;n1</title>
<path fill="none" stroke="#b9ff00" d="M249,-287.7C249,-279.98 249,-270.71 249,-262.11"/>
<polygon fill="#b9ff00" stroke="#b9ff00" points="252.5,-262.1 249,-252.1 245.5,-262.1 252.5,-262.1"/>
</g>
<!-- n2 -->
<g id="node3" class="node">
<title>n2</title>
<ellipse fill="#2b8ea4" stroke="#007add" cx="153" cy="-162" rx="73.39" ry="18"/>
<text text-anchor="middle" x="153" y="-158.3" font-family="Times,serif" font-size="14.00" fill="white">ASIGNACION</text>
</g>
<!-- n1&#45;&gt;n2 -->
<g id="edge2" class="edge">
<title>n1&#45;&gt;n2</title>
<path fill="none" stroke="#b9ff00" d="M226.25,-216.41C213.48,-207.1 197.39,-195.37 183.54,-185.27"/>
<polygon fill="#b9ff00" stroke="#b9ff00" points="185.4,-182.29 175.26,-179.23 181.27,-187.95 185.4,-182.29"/>
</g>
<!-- n7 -->
<g id="node8" class="node">
<title>n7</title>
<ellipse fill="#2b8ea4" stroke="#007add" cx="435" cy="-162" rx="48.19" ry="18"/>
<text text-anchor="middle" x="435" y="-158.3" font-family="Times,serif" font-size="14.00" fill="white">RPRINT</text>
</g>
<!-- n1&#45;&gt;n7 -->
<g id="edge7" class="edge">
<title>n1&#45;&gt;n7</title>
<path fill="none" stroke="#b9ff00" d="M288.9,-217.98C319.44,-206.49 361.45,-190.68 392.59,-178.96"/>
<polygon fill="#b9ff00" stroke="#b9ff00" points="394.16,-182.11 402.29,-175.31 391.7,-175.56 394.16,-182.11"/>
</g>
<!-- n3 -->
<g id="node4" class="node">
<title>n3</title>
<ellipse fill="#2b8ea4" stroke="#007add" cx="27" cy="-90" rx="27" ry="18"/>
<text text-anchor="middle" x="27" y="-86.3" font-family="Times,serif" font-size="14.00" fill="white">t</text>
</g>
<!-- n2&#45;&gt;n3 -->
<g id="edge3" class="edge">
<title>n2&#45;&gt;n3</title>
<path fill="none" stroke="#b9ff00" d="M124.72,-145.29C104.34,-133.96 76.9,-118.72 56.28,-107.27"/>
<polygon fill="#b9ff00" stroke="#b9ff00" points="57.78,-104.1 47.34,-102.3 54.38,-110.22 57.78,-104.1"/>
</g>
<!-- n4 -->
<g id="node5" class="node">
<title>n4</title>
<ellipse fill="#2b8ea4" stroke="#007add" cx="99" cy="-90" rx="27" ry="18"/>
<text text-anchor="middle" x="99" y="-86.3" font-family="Times,serif" font-size="14.00" fill="white">=</text>
</g>
<!-- n2&#45;&gt;n4 -->
<g id="edge4" class="edge">
<title>n2&#45;&gt;n4</title>
<path fill="none" stroke="#b9ff00" d="M139.93,-144.05C133.07,-135.17 124.57,-124.14 117.09,-114.45"/>
<polygon fill="#b9ff00" stroke="#b9ff00" points="119.73,-112.14 110.85,-106.36 114.18,-116.41 119.73,-112.14"/>
</g>
<!-- n5 -->
<g id="node6" class="node">
<title>n5</title>
<ellipse fill="#2b8ea4" stroke="#007add" cx="206" cy="-90" rx="62.29" ry="18"/>
<text text-anchor="middle" x="206" y="-86.3" font-family="Times,serif" font-size="14.00" fill="white">PRIMITIVE</text>
</g>
<!-- n2&#45;&gt;n5 -->
<g id="edge5" class="edge">
<title>n2&#45;&gt;n5</title>
<path fill="none" stroke="#b9ff00" d="M165.83,-144.05C172.21,-135.63 180.05,-125.28 187.1,-115.97"/>
<polygon fill="#b9ff00" stroke="#b9ff00" points="190.04,-117.87 193.29,-107.79 184.46,-113.65 190.04,-117.87"/>
</g>
<!-- n6 -->
<g id="node7" class="node">
<title>n6</title>
<ellipse fill="#2b8ea4" stroke="#007add" cx="206" cy="-18" rx="27" ry="18"/>
<text text-anchor="middle" x="206" y="-14.3" font-family="Times,serif" font-size="14.00" fill="white">4</text>
</g>
<!-- n5&#45;&gt;n6 -->
<g id="edge6" class="edge">
<title>n5&#45;&gt;n6</title>
<path fill="none" stroke="#b9ff00" d="M206,-71.7C206,-63.98 206,-54.71 206,-46.11"/>
<polygon fill="#b9ff00" stroke="#b9ff00" points="209.5,-46.1 206,-36.1 202.5,-46.1 209.5,-46.1"/>
</g>
<!-- n8 -->
<g id="node9" class="node">
<title>n8</title>
<ellipse fill="#2b8ea4" stroke="#007add" cx="320" cy="-90" rx="33.6" ry="18"/>
<text text-anchor="middle" x="320" y="-86.3" font-family="Times,serif" font-size="14.00" fill="white">print</text>
</g>
<!-- n7&#45;&gt;n8 -->
<g id="edge8" class="edge">
<title>n7&#45;&gt;n8</title>
<path fill="none" stroke="#b9ff00" d="M410.89,-146.33C393.15,-135.53 368.92,-120.78 349.94,-109.23"/>
<polygon fill="#b9ff00" stroke="#b9ff00" points="351.73,-106.21 341.37,-104 348.09,-112.19 351.73,-106.21"/>
</g>
<!-- n9 -->
<g id="node10" class="node">
<title>n9</title>
<ellipse fill="#2b8ea4" stroke="#007add" cx="399" cy="-90" rx="27" ry="18"/>
<text text-anchor="middle" x="399" y="-86.3" font-family="Times,serif" font-size="14.00" fill="white">(</text>
</g>
<!-- n7&#45;&gt;n9 -->
<g id="edge9" class="edge">
<title>n7&#45;&gt;n9</title>
<path fill="none" stroke="#b9ff00" d="M426.29,-144.05C422.02,-135.77 416.8,-125.62 412.08,-116.42"/>
<polygon fill="#b9ff00" stroke="#b9ff00" points="415.07,-114.6 407.39,-107.31 408.85,-117.8 415.07,-114.6"/>
</g>
<!-- n10 -->
<g id="node11" class="node">
<title>n10</title>
<ellipse fill="#2b8ea4" stroke="#007add" cx="471" cy="-90" rx="27" ry="18"/>
<text text-anchor="middle" x="471" y="-86.3" font-family="Times,serif" font-size="14.00" fill="white">ID</text>
</g>
<!-- n7&#45;&gt;n10 -->
<g id="edge10" class="edge">
<title>n7&#45;&gt;n10</title>
<path fill="none" stroke="#b9ff00" d="M443.71,-144.05C447.98,-135.77 453.2,-125.62 457.92,-116.42"/>
<polygon fill="#b9ff00" stroke="#b9ff00" points="461.15,-117.8 462.61,-107.31 454.93,-114.6 461.15,-117.8"/>
</g>
<!-- n12 -->
<g id="node13" class="node">
<title>n12</title>
<ellipse fill="#2b8ea4" stroke="#007add" cx="543" cy="-90" rx="27" ry="18"/>
<text text-anchor="middle" x="543" y="-86.3" font-family="Times,serif" font-size="14.00" fill="white">)</text>
</g>
<!-- n7&#45;&gt;n12 -->
<g id="edge12" class="edge">
<title>n7&#45;&gt;n12</title>
<path fill="none" stroke="#b9ff00" d="M457.9,-146.15C474.67,-135.29 497.51,-120.49 515.3,-108.95"/>
<polygon fill="#b9ff00" stroke="#b9ff00" points="517.6,-111.63 524.09,-103.26 513.79,-105.76 517.6,-111.63"/>
</g>
<!-- n13 -->
<g id="node14" class="node">
<title>n13</title>
<ellipse fill="#2b8ea4" stroke="#007add" cx="615" cy="-90" rx="27" ry="18"/>
<text text-anchor="middle" x="615" y="-86.3" font-family="Times,serif" font-size="14.00" fill="white">;</text>
</g>
<!-- n7&#45;&gt;n13 -->
<g id="edge13" class="edge">
<title>n7&#45;&gt;n13</title>
<path fill="none" stroke="#b9ff00" d="M469.37,-149.31C498.76,-139.09 542.02,-123.5 579,-108 580.82,-107.24 582.68,-106.44 584.54,-105.61"/>
<polygon fill="#b9ff00" stroke="#b9ff00" points="586.17,-108.71 593.82,-101.38 583.27,-102.35 586.17,-108.71"/>
</g>
<!-- n11 -->
<g id="node12" class="node">
<title>n11</title>
<ellipse fill="#2b8ea4" stroke="#007add" cx="471" cy="-18" rx="27" ry="18"/>
<text text-anchor="middle" x="471" y="-14.3" font-family="Times,serif" font-size="14.00" fill="white">t</text>
</g>
<!-- n10&#45;&gt;n11 -->
<g id="edge11" class="edge">
<title>n10&#45;&gt;n11</title>
<path fill="none" stroke="#b9ff00" d="M471,-71.7C471,-63.98 471,-54.71 471,-46.11"/>
<polygon fill="#b9ff00" stroke="#b9ff00" points="474.5,-46.1 471,-36.1 467.5,-46.1 474.5,-46.1"/>
</g>
</g>
</svg>
